<?xml version="1.0" encoding="UTF-8"?>
<svg id="Layer_1" data-name="Layer 1" xmlns="http://www.w3.org/2000/svg" viewBox="0 0 516.63 398.38">
  <path d="M377.17,231.7c0,76.71-58.6,140.56-136.27,140.56-72.42,0-116.26-48.12-116.26-116.73,0-76.71,58.6-140.55,136.27-140.55,72.42,0,116.26,48.12,116.26,116.73ZM341.44,235.04c0-50.98-30.97-86.71-82.9-86.71-55.75,0-98.15,47.17-98.15,103.87,0,50.98,30.97,86.71,82.9,86.71,55.75,0,98.15-47.17,98.15-103.87Z"/>
  <path d="M389.45,26.12h26.21l3.81,4.76-58.6,333.52-5.72,4.76h-26.2l-3.81-4.76L383.74,30.89l5.72-4.76Z"/>
  <path d="M59.53,369.21h-26.2l-3.81-4.76L88.11,30.92l5.72-4.76h26.21l3.81,4.76-17.63,100.06c3.81-1.43,8.1-2.38,12.39-2.38,20.49,0,32.4,16.68,28.11,40.02l-34.3,195.82-5.72,4.76h-26.21l-3.81-4.76,34.31-195.35c.95-6.19,0-9.53-4.29-9.53s-6.19,3.34-7.15,9.53l-34.31,195.35-5.72,4.76Z"/>
  <path d="M399.06,369.21h-26.2l-3.81-4.76,40.02-228.7,5.72-4.76h21.44l2.86,3.34c5.72-3.81,11.91-5.72,19.06-5.72,20.49,0,32.4,16.68,28.11,40.02l-34.3,195.82-5.72,4.76h-26.21l-3.81-4.76,34.31-195.35c.95-6.19,0-9.53-4.29-9.53s-6.19,3.34-7.15,9.53l-34.31,195.35-5.72,4.76Z"/>
  <path d="M178.77,120.97c-13.82,0-26.21-10.48-26.21-25.73s12.39-25.73,26.21-25.73,26.2,10.48,26.2,25.73-12.39,25.73-26.2,25.73Z"/>
</svg>